<svg width="139" height="75" viewBox="0 0 139 75" fill="none" xmlns="http://www.w3.org/2000/svg">
<path d="M1.212 35.536C0.456 35.48 0.0779999 35.242 0.0779999 34.822C0.0779999 34.626 0.162 34.388 0.33 34.108C0.414 33.856 0.554 33.688 0.75 33.604C0.582 33.968 0.497999 34.262 0.497999 34.486C0.497999 34.906 0.834 35.116 1.506 35.116C3.074 35.116 5.048 34.388 7.428 32.932C6.056 32.316 5.37 31.406 5.37 30.202C5.37 29.39 5.706 28.564 6.378 27.724C7.778 26.016 9.92 24.826 12.804 24.154C12.44 23.09 12.258 21.886 12.258 20.542C12.258 18.834 12.538 17.224 13.098 15.712C13.994 13.22 15.184 11.316 16.668 10C17.956 8.852 19.258 8.278 20.574 8.278C21.526 8.278 22.31 8.6 22.926 9.244C23.542 9.86 23.85 10.728 23.85 11.848C23.85 12.772 23.57 13.864 23.01 15.124C21.806 17.728 19.706 20.528 16.71 23.524L18.348 23.356C19.3 22.432 20.266 21.41 21.246 20.29C22.254 19.142 23.29 17.91 24.354 16.594C27.294 12.926 28.764 10.434 28.764 9.118C28.764 8.502 28.428 8.18 27.756 8.152C27.588 8.152 27.504 8.096 27.504 7.984C27.504 7.844 27.644 7.774 27.924 7.774C29.24 7.83 29.898 8.376 29.898 9.412C29.898 10.084 29.604 10.994 29.016 12.142C29.1 12.254 29.114 12.436 29.058 12.688C28.806 13.724 28.484 15.096 28.092 16.804C27.728 18.484 27.308 20.5 26.832 22.852C29.016 22.516 30.108 21.62 30.108 20.164C30.108 19.968 30.192 19.87 30.36 19.87C30.444 19.87 30.514 19.94 30.57 20.08C30.654 21.956 29.38 23.104 26.748 23.524C26.636 24.252 26.552 24.924 26.496 25.54C26.44 26.156 26.412 26.73 26.412 27.262C26.412 27.71 26.426 28.116 26.454 28.48C26.51 28.844 26.566 29.18 26.622 29.488C26.93 30.748 27.49 31.378 28.302 31.378C29.002 31.378 29.87 30.902 30.906 29.95C31.102 29.782 31.368 29.516 31.704 29.152C32.04 28.76 32.474 28.284 33.006 27.724C33.23 27.5 33.384 27.388 33.468 27.388C33.58 27.388 33.636 27.458 33.636 27.598C33.636 27.682 33.608 27.78 33.552 27.892C33.16 28.396 32.74 28.872 32.292 29.32C31.844 29.74 31.354 30.146 30.822 30.538C29.618 31.49 28.54 31.966 27.588 31.966C26.244 31.966 25.376 31 24.984 29.068C24.9 28.676 24.858 28.214 24.858 27.682C24.858 26.562 25.026 25.232 25.362 23.692C24.634 23.72 23.71 23.762 22.59 23.818C21.498 23.846 20.224 23.888 18.768 23.944L15.282 27.262C16.318 28.13 17.648 28.564 19.272 28.564C20.392 28.564 21.232 28.284 21.792 27.724C21.848 27.64 21.918 27.64 22.002 27.724C22.058 27.808 22.058 27.878 22.002 27.934C21.386 28.55 20.476 28.858 19.272 28.858C17.564 28.858 16.136 28.41 14.988 27.514C12.16 30.174 9.948 31.98 8.352 32.932C9.164 33.324 10.158 33.576 11.334 33.688C11.53 33.716 11.628 33.772 11.628 33.856C11.628 33.996 11.474 34.038 11.166 33.982C9.878 33.842 8.8 33.576 7.932 33.184C5.104 34.836 2.864 35.62 1.212 35.536ZM13.308 24.028C13.7 23.972 14.134 23.902 14.61 23.818C15.086 23.734 15.604 23.664 16.164 23.608C19.02 20.668 21.12 17.798 22.464 14.998C23.052 13.766 23.346 12.66 23.346 11.68C23.346 10.728 23.08 9.972 22.548 9.412C22.044 8.852 21.4 8.572 20.616 8.572C19.44 8.572 18.25 9.132 17.046 10.252C15.702 11.54 14.596 13.374 13.728 15.754C13.14 17.35 12.846 19.03 12.846 20.794C12.846 21.41 12.888 21.984 12.972 22.516C13.056 23.048 13.168 23.552 13.308 24.028ZM19.566 23.272C19.93 23.216 20.364 23.174 20.868 23.146C21.372 23.118 21.932 23.104 22.548 23.104C23.276 23.076 23.892 23.062 24.396 23.062C24.9 23.062 25.264 23.048 25.488 23.02C25.656 22.348 25.866 21.592 26.118 20.752C26.37 19.912 26.636 19.002 26.916 18.022L28.302 13.444C27.154 15.292 25.81 17.028 24.27 18.652C23.878 19.1 23.276 19.702 22.464 20.458C21.68 21.214 20.714 22.152 19.566 23.272ZM14.778 26.8L17.592 24.112L15.744 24.448L14.148 25.96C14.26 26.1 14.358 26.24 14.442 26.38C14.554 26.52 14.666 26.66 14.778 26.8ZM13.98 25.666C14.176 25.498 14.358 25.33 14.526 25.162C14.722 24.994 14.918 24.812 15.114 24.616C14.862 24.672 14.61 24.742 14.358 24.826C14.106 24.882 13.868 24.952 13.644 25.036L13.98 25.666ZM7.89 32.68C8.646 32.204 9.57 31.504 10.662 30.58C11.782 29.628 13.07 28.452 14.526 27.052C14.274 26.772 14.036 26.492 13.812 26.212L13.518 26.464C11.362 28.284 10.144 29.194 9.864 29.194C9.78 29.194 9.738 29.152 9.738 29.068C9.71 29.012 9.724 28.956 9.78 28.9C10.872 28.2 12.16 27.22 13.644 25.96C13.504 25.736 13.364 25.47 13.224 25.162C11.684 25.666 10.298 26.352 9.066 27.22C7.442 28.34 6.63 29.474 6.63 30.622C6.63 31.35 7.05 32.036 7.89 32.68ZM32.7432 31.042C32.5472 31.042 32.3792 30.958 32.2392 30.79C32.0992 30.622 32.0432 30.482 32.0712 30.37L33.3312 27.472C34.0592 25.764 34.4232 24.728 34.4232 24.364C34.5072 24.252 34.7872 24.084 35.2632 23.86C35.3752 23.804 35.4732 23.762 35.5572 23.734C35.6412 23.706 35.7252 23.692 35.8092 23.692C36.0052 23.692 36.1032 23.818 36.1032 24.07C35.9072 24.63 35.6132 25.358 35.2212 26.254C34.8572 27.122 34.3812 28.172 33.7932 29.404L38.2872 24.574C38.6792 24.154 38.9732 23.944 39.1692 23.944C39.3092 23.944 39.3792 24.028 39.3792 24.196C39.3792 24.252 39.3652 24.322 39.3372 24.406C39.3372 24.462 39.3232 24.532 39.2952 24.616C38.7072 26.66 38.4132 28.06 38.4132 28.816C38.4132 29.768 38.7352 30.244 39.3792 30.244C39.9672 30.244 40.6672 29.922 41.4792 29.278C41.6192 29.166 41.8292 28.97 42.1092 28.69C42.4172 28.41 42.7812 28.046 43.2012 27.598C43.3132 27.486 43.4252 27.43 43.5372 27.43C43.6212 27.43 43.6632 27.486 43.6632 27.598C43.6912 27.654 43.6632 27.752 43.5792 27.892C41.8152 29.852 40.2472 30.832 38.8752 30.832C37.6432 30.832 37.0272 29.866 37.0272 27.934C37.0272 27.71 37.0272 27.486 37.0272 27.262C37.0552 27.038 37.0832 26.8 37.1112 26.548L35.1372 28.438C34.9132 28.634 34.6892 28.844 34.4652 29.068C34.2692 29.292 34.0872 29.516 33.9192 29.74L33.0792 30.79C32.9952 30.958 32.8832 31.042 32.7432 31.042ZM42.833 31.042C42.637 31.042 42.469 30.958 42.329 30.79C42.189 30.622 42.133 30.482 42.161 30.37L43.421 27.472C44.149 25.764 44.513 24.728 44.513 24.364C44.597 24.252 44.877 24.084 45.353 23.86C45.465 23.804 45.563 23.762 45.647 23.734C45.731 23.706 45.815 23.692 45.899 23.692C46.095 23.692 46.193 23.818 46.193 24.07C45.997 24.63 45.703 25.358 45.311 26.254C44.947 27.122 44.471 28.172 43.883 29.404L48.377 24.574C48.769 24.154 49.063 23.944 49.259 23.944C49.399 23.944 49.469 24.028 49.469 24.196C49.469 24.252 49.455 24.322 49.427 24.406C49.427 24.462 49.413 24.532 49.385 24.616C48.797 26.66 48.503 28.06 48.503 28.816C48.503 29.768 48.825 30.244 49.469 30.244C50.057 30.244 50.757 29.922 51.569 29.278C51.709 29.166 51.919 28.97 52.199 28.69C52.507 28.41 52.871 28.046 53.291 27.598C53.403 27.486 53.515 27.43 53.627 27.43C53.711 27.43 53.753 27.486 53.753 27.598C53.781 27.654 53.753 27.752 53.669 27.892C51.905 29.852 50.337 30.832 48.965 30.832C47.733 30.832 47.117 29.866 47.117 27.934C47.117 27.71 47.117 27.486 47.117 27.262C47.145 27.038 47.173 26.8 47.201 26.548L45.227 28.438C45.003 28.634 44.779 28.844 44.555 29.068C44.359 29.292 44.177 29.516 44.009 29.74L43.169 30.79C43.085 30.958 42.973 31.042 42.833 31.042ZM53.5529 31.042C52.9089 31.042 52.5869 30.622 52.5869 29.782C52.5869 29.11 52.8389 28.382 53.3429 27.598C54.5189 25.834 55.7929 24.644 57.1649 24.028C57.7529 23.748 58.3269 23.608 58.8869 23.608C59.1669 23.608 59.4749 23.692 59.8109 23.86C60.1469 24 60.3149 24.21 60.3149 24.49C60.3149 24.63 60.2169 24.714 60.0209 24.742C59.9089 24.77 59.8249 24.798 59.7689 24.826C59.7409 24.854 59.7129 24.882 59.6849 24.91C59.0409 26.114 58.7189 27.234 58.7189 28.27C58.7189 29.586 59.2369 30.244 60.2729 30.244C61.3649 30.244 62.7229 29.39 64.3469 27.682C64.4869 27.514 64.5989 27.43 64.6829 27.43C64.7669 27.43 64.8089 27.486 64.8089 27.598C64.8089 27.71 64.7669 27.836 64.6829 27.976C62.8069 29.992 61.1689 31 59.7689 31C59.0969 31 58.5509 30.706 58.1309 30.118C57.6829 29.502 57.4449 28.76 57.4169 27.892C56.7169 28.816 56.0169 29.586 55.3169 30.202C54.5889 30.762 54.0009 31.042 53.5529 31.042ZM54.4349 29.782C54.7429 29.782 55.1489 29.572 55.6529 29.152C56.1009 28.76 56.4789 28.382 56.7869 28.018C57.0949 27.626 57.3189 27.234 57.4589 26.842C57.5149 26.366 57.5989 25.946 57.7109 25.582C57.8509 25.19 57.9909 24.84 58.1309 24.532C56.6749 24.504 55.4289 25.512 54.3929 27.556C54.0849 28.116 53.9309 28.62 53.9309 29.068C53.9309 29.544 54.0989 29.782 54.4349 29.782Z" fill="#EDEDED"/>
<path d="M42.902 67.94C42.538 67.94 42.188 67.8 41.852 67.52C41.516 67.24 41.362 66.946 41.39 66.638C41.446 66.022 41.544 65.364 41.684 64.664C41.824 63.964 42.006 63.222 42.23 62.438C42.006 62.382 41.782 62.312 41.558 62.228C41.362 62.116 41.152 62.004 40.928 61.892C40.004 64.496 39.5 66.288 39.416 67.268C39.416 67.352 39.402 67.394 39.374 67.394C39.29 67.394 39.22 67.352 39.164 67.268C39.136 67.212 39.136 67.17 39.164 67.142C39.304 65.966 39.766 64.16 40.55 61.724C38.534 60.576 36.938 58.924 35.762 56.768C34.642 54.724 34.082 52.484 34.082 50.048C31.338 52.568 29.966 54.85 29.966 56.894C29.966 58.126 30.54 59.078 31.688 59.75C31.968 59.918 32.108 60.058 32.108 60.17C32.108 60.282 32.038 60.338 31.898 60.338C31.758 60.338 31.576 60.268 31.352 60.128C29.84 58.896 29.084 57.496 29.084 55.928C29.084 54.64 29.588 53.31 30.596 51.938C31.492 50.65 32.682 49.474 34.166 48.41C34.194 48.074 34.236 47.752 34.292 47.444C34.348 47.108 34.418 46.786 34.502 46.478C34.894 45.162 35.482 44.042 36.266 43.118C37.19 42.054 38.268 41.522 39.5 41.522C40.396 41.522 41.18 41.816 41.852 42.404C42.608 43.076 43.154 44.014 43.49 45.218C45.982 45.694 47.228 47.472 47.228 50.552C47.228 52.064 46.864 53.87 46.136 55.97C45.856 56.67 45.52 57.552 45.128 58.616C44.764 59.652 44.344 60.884 43.868 62.312C44.988 62.34 46.094 62.046 47.186 61.43C48.166 60.87 48.74 60.212 48.908 59.456C48.964 59.4 49.006 59.372 49.034 59.372C49.23 59.372 49.3 59.428 49.244 59.54C49.048 60.352 48.404 61.066 47.312 61.682C46.192 62.382 45.002 62.704 43.742 62.648C43.182 64.412 42.902 65.588 42.902 66.176C42.902 66.512 43 66.68 43.196 66.68C44.036 66.68 45.646 65.7 48.026 63.74C48.978 62.956 49.818 62.228 50.546 61.556C51.274 60.884 51.876 60.282 52.352 59.75C53.276 58.77 54.102 57.776 54.83 56.768C55.586 55.76 56.244 54.752 56.804 53.744C58.176 51.28 58.862 49.054 58.862 47.066C58.862 45.33 58.316 43.832 57.224 42.572C57 42.264 56.888 42.054 56.888 41.942C56.888 41.858 56.916 41.816 56.972 41.816C57.168 41.816 57.42 41.956 57.728 42.236C59.212 43.552 59.954 45.19 59.954 47.15C59.954 49.194 59.184 51.49 57.644 54.038C56.44 56.082 54.83 58.154 52.814 60.254C47.914 65.378 44.61 67.94 42.902 67.94ZM34.796 47.948L35.048 47.822C37.932 45.862 40.522 44.966 42.818 45.134C42.51 44.126 42.048 43.356 41.432 42.824C40.844 42.292 40.186 42.026 39.458 42.026C38.422 42.026 37.512 42.46 36.728 43.328C35.972 44.112 35.426 45.162 35.09 46.478C35.034 46.702 34.978 46.94 34.922 47.192C34.894 47.444 34.852 47.696 34.796 47.948ZM40.718 61.304L40.928 60.674C42.496 56.11 43.28 52.148 43.28 48.788C43.28 47.612 43.196 46.632 43.028 45.848C42.916 45.82 42.804 45.806 42.692 45.806C42.58 45.778 42.468 45.764 42.356 45.764C40.172 45.764 37.624 46.996 34.712 49.46C34.712 51.784 35.244 54.038 36.308 56.222C37.428 58.462 38.898 60.156 40.718 61.304ZM42.356 62.06C42.86 60.548 43.574 58.322 44.498 55.382C45.17 53.198 45.506 51.364 45.506 49.88C45.506 47.836 44.89 46.562 43.658 46.058C43.714 46.422 43.756 46.814 43.784 47.234C43.84 47.654 43.868 48.13 43.868 48.662C43.868 51.938 43.028 55.956 41.348 60.716L41.054 61.514C41.278 61.626 41.488 61.738 41.684 61.85C41.908 61.934 42.132 62.004 42.356 62.06ZM63.668 54.5C63.416 54.5 63.178 54.402 62.954 54.206C62.758 53.982 62.66 53.744 62.66 53.492C62.66 53.156 62.814 52.876 63.122 52.652C63.346 52.456 63.598 52.358 63.878 52.358C64.522 52.358 64.844 52.638 64.844 53.198C64.844 54.066 64.452 54.5 63.668 54.5ZM60.854 65C59.23 64.972 58.502 63.852 58.67 61.64C58.698 60.688 59.216 59.47 60.224 57.986C60.392 57.678 60.756 57.524 61.316 57.524C61.736 57.524 61.946 57.65 61.946 57.902L61.904 58.112L60.854 59.918C60.434 60.702 60.21 61.304 60.182 61.724C60.154 61.864 60.126 62.018 60.098 62.186C60.098 62.326 60.098 62.466 60.098 62.606C60.098 63.754 60.504 64.328 61.316 64.328C62.436 64.328 63.836 63.446 65.516 61.682C65.684 61.486 65.824 61.388 65.936 61.388C66.02 61.416 66.062 61.486 66.062 61.598C66.062 61.682 66.02 61.794 65.936 61.934C63.976 64.034 62.282 65.056 60.854 65ZM71.3498 65.672C70.0898 65.672 69.4598 64.986 69.4598 63.614C69.4598 62.662 69.8658 61.444 70.6778 59.96C70.2578 60.016 69.8518 59.876 69.4598 59.54C69.0958 59.204 68.9138 58.812 68.9138 58.364C68.1858 59.736 67.0938 61.024 65.6378 62.228C65.5258 62.34 65.3858 62.396 65.2178 62.396C65.1058 62.396 65.0498 62.354 65.0498 62.27C65.0498 62.158 65.1338 62.046 65.3018 61.934C66.5618 60.786 67.6398 59.372 68.5358 57.692L68.4518 57.272C68.4238 57.132 68.3958 57.006 68.3678 56.894C68.3678 56.754 68.3678 56.628 68.3678 56.516C68.3678 55.844 68.5498 55.312 68.9138 54.92C69.2498 54.556 69.6278 54.374 70.0478 54.374C70.5798 54.374 70.8458 54.654 70.8458 55.214C70.8458 55.914 70.3838 56.81 69.4598 57.902V57.986C69.4598 58.462 69.7398 58.7 70.2998 58.7C70.5238 58.7 70.7898 58.644 71.0978 58.532C71.4338 58.448 71.6718 58.406 71.8118 58.406C72.3158 58.406 72.5678 58.672 72.5678 59.204C72.5678 59.4 72.4978 59.61 72.3578 59.834C72.1618 60.114 71.9098 60.618 71.6018 61.346C71.2378 62.13 71.0278 62.704 70.9718 63.068C70.9438 63.18 70.9158 63.292 70.8878 63.404C70.8878 63.516 70.8878 63.628 70.8878 63.74C70.8878 64.468 71.2238 64.832 71.8958 64.832C72.7358 64.832 73.7998 64.454 75.0878 63.698C75.6478 63.39 76.1518 63.068 76.5998 62.732C77.0478 62.396 77.4538 62.046 77.8178 61.682C77.9858 61.514 78.1258 61.43 78.2378 61.43C78.3218 61.43 78.3638 61.486 78.3638 61.598C78.3638 61.738 78.2798 61.892 78.1118 62.06C76.1518 63.74 74.4998 64.818 73.1558 65.294C72.4558 65.546 71.8538 65.672 71.3498 65.672ZM79.7485 65.252C79.3285 65.252 78.9505 65.126 78.6145 64.874C78.3065 64.622 78.1105 64.314 78.0265 63.95C77.9145 63.586 77.8585 63.278 77.8585 63.026C77.8585 62.858 77.8865 62.746 77.9425 62.69C77.9425 62.466 78.0405 62.354 78.2365 62.354C78.2925 62.354 78.3345 62.368 78.3625 62.396C78.8665 63.012 79.5245 63.474 80.3365 63.782C80.3365 63.53 80.2945 63.264 80.2105 62.984C80.0985 62.564 79.9025 62.172 79.6225 61.808C79.0625 61.052 78.7825 60.24 78.7825 59.372C78.7825 57.356 80.0145 55.886 82.4785 54.962C83.1505 54.738 83.7385 54.626 84.2425 54.626C85.3345 54.626 85.8805 55.074 85.8805 55.97C85.8805 56.53 85.6985 57.076 85.3345 57.608C85.1665 57.832 85.0265 57.958 84.9145 57.986C84.8025 58.014 84.7465 57.958 84.7465 57.818C84.7465 57.706 84.7885 57.594 84.8725 57.482C85.0685 57.118 85.1665 56.81 85.1665 56.558C85.1665 56.138 84.8725 55.928 84.2845 55.928C84.2285 55.928 84.1585 55.928 84.0745 55.928C83.9905 55.928 83.9065 55.942 83.8225 55.97C81.9185 56.306 80.6305 57.412 79.9585 59.288C79.8745 59.568 79.8325 59.834 79.8325 60.086C79.8325 60.534 80.0425 61.122 80.4625 61.85C80.9105 62.578 81.1485 63.152 81.1765 63.572C81.1765 63.796 81.1625 63.95 81.1345 64.034C81.3025 64.062 81.4705 64.09 81.6385 64.118C81.8065 64.118 81.9745 64.118 82.1425 64.118C82.6465 64.118 83.1225 64.062 83.5705 63.95C84.2985 63.754 84.9845 63.474 85.6285 63.11C86.2725 62.718 86.8605 62.214 87.3925 61.598C87.4765 61.486 87.5745 61.43 87.6865 61.43C87.7985 61.43 87.8545 61.5 87.8545 61.64C87.8545 61.78 87.7985 61.906 87.6865 62.018C86.2025 63.418 84.8025 64.244 83.4865 64.496C82.9825 64.58 82.5065 64.622 82.0585 64.622C81.8625 64.622 81.6665 64.622 81.4705 64.622C81.3025 64.594 81.1345 64.566 80.9665 64.538C80.6585 65.014 80.2525 65.252 79.7485 65.252ZM79.4965 64.538C79.7205 64.538 79.9025 64.468 80.0425 64.328C79.3705 64.132 78.7825 63.782 78.2785 63.278C78.2785 63.642 78.4045 63.95 78.6565 64.202C78.9365 64.426 79.2165 64.538 79.4965 64.538ZM89.6431 65.378C88.0191 65.378 87.2071 64.482 87.2071 62.69C87.2071 62.074 87.4311 61.304 87.8791 60.38C88.3271 59.428 88.8731 58.644 89.5171 58.028C90.3011 57.3 91.0151 56.936 91.6591 56.936C92.5271 56.936 92.9611 57.37 92.9611 58.238C92.9611 58.798 92.7371 59.358 92.2891 59.918C91.4491 60.926 90.2731 61.612 88.7611 61.976C88.7331 62.172 88.7051 62.354 88.6771 62.522C88.6771 62.662 88.6771 62.802 88.6771 62.942C88.6771 64.118 89.2231 64.706 90.3151 64.706C91.1831 64.706 92.2751 64.342 93.5911 63.614C94.1511 63.306 94.6551 62.984 95.1031 62.648C95.5511 62.312 95.9291 61.99 96.2371 61.682C96.5731 61.29 96.7411 61.262 96.7411 61.598C96.7411 61.738 96.6851 61.864 96.5731 61.976C96.2651 62.34 95.8591 62.718 95.3551 63.11C94.8791 63.474 94.2911 63.838 93.5911 64.202C92.1071 64.986 90.7911 65.378 89.6431 65.378ZM88.9291 61.514C90.3011 61.066 91.2391 60.394 91.7431 59.498C92.0791 58.938 92.2471 58.462 92.2471 58.07C92.2471 57.762 92.1491 57.608 91.9531 57.608C91.7291 57.608 91.4211 57.818 91.0291 58.238C90.6371 58.63 90.2451 59.12 89.8531 59.708C89.4891 60.296 89.1811 60.898 88.9291 61.514ZM95.8565 65.042C95.6605 65.042 95.4925 64.958 95.3525 64.79C95.2125 64.622 95.1565 64.482 95.1845 64.37L96.4445 61.472C97.1725 59.764 97.5365 58.728 97.5365 58.364C97.6205 58.252 97.9005 58.084 98.3765 57.86C98.4885 57.804 98.5865 57.762 98.6705 57.734C98.7545 57.706 98.8385 57.692 98.9225 57.692C99.1185 57.692 99.2165 57.818 99.2165 58.07C99.0205 58.63 98.7265 59.358 98.3345 60.254C97.9705 61.122 97.4945 62.172 96.9065 63.404L101.4 58.574C101.792 58.154 102.086 57.944 102.282 57.944C102.422 57.944 102.492 58.028 102.492 58.196C102.492 58.252 102.478 58.322 102.45 58.406C102.45 58.462 102.436 58.532 102.408 58.616C101.82 60.66 101.526 62.06 101.526 62.816C101.526 63.768 101.848 64.244 102.492 64.244C103.08 64.244 103.78 63.922 104.592 63.278C104.732 63.166 104.942 62.97 105.222 62.69C105.53 62.41 105.894 62.046 106.314 61.598C106.426 61.486 106.538 61.43 106.65 61.43C106.734 61.43 106.776 61.486 106.776 61.598C106.804 61.654 106.776 61.752 106.692 61.892C104.928 63.852 103.36 64.832 101.988 64.832C100.756 64.832 100.14 63.866 100.14 61.934C100.14 61.71 100.14 61.486 100.14 61.262C100.168 61.038 100.196 60.8 100.224 60.548L98.2505 62.438C98.0265 62.634 97.8025 62.844 97.5785 63.068C97.3825 63.292 97.2005 63.516 97.0325 63.74L96.1925 64.79C96.1085 64.958 95.9965 65.042 95.8565 65.042Z" fill="#EDEDED"/>
<path d="M133.043 48.6429C132.719 48.369 132.343 48.379 131.961 48.4464C131.27 48.568 130.583 48.7117 129.952 49.0309C129.635 49.1912 129.339 49.3935 129.034 49.5763C128.997 49.598 128.96 49.6177 128.888 49.6585C128.91 49.5126 128.925 49.4021 128.944 49.2923C129.047 48.7008 128.953 48.1292 128.79 47.5595C128.326 45.9455 127.517 44.5027 126.606 43.1088C125.957 42.1155 125.355 41.0892 124.662 40.1279C123.96 39.155 123.195 38.2255 122.419 37.3098C121.426 36.1382 120.431 34.965 119.369 33.8571C118.509 32.9596 117.562 32.1428 116.629 31.3177C115.879 30.6537 115.096 30.0255 114.32 29.3907C113.72 28.9004 113.108 28.4247 112.502 27.9428C112.46 27.9099 112.416 27.881 112.373 27.8501C112.347 27.8562 112.321 27.8621 112.295 27.8679C112.326 28.3038 112.335 28.7428 112.392 29.1752C112.6 30.7656 113.276 32.1651 114.152 33.489C115.314 35.2456 116.46 37.0132 117.599 38.785C118.409 40.0456 119.212 41.3089 120.165 42.4713C120.743 43.1758 121.064 43.9892 121.096 44.9213C121.129 45.8805 121.185 46.8383 120.967 47.7818C120.9 48.067 120.758 48.3339 120.655 48.6112C120.421 49.2461 120.176 49.8773 119.962 50.519C119.779 51.0653 119.624 51.6215 119.477 52.1786C119.423 52.379 119.332 52.5018 119.129 52.5505C118.479 52.7067 117.835 52.8936 117.18 53.0209C116.299 53.1917 115.414 53.3616 114.523 53.455C112.196 53.6989 109.903 53.9551 107.57 54.1302C106.865 54.1833 106.146 54.0394 105.433 53.9865C105.358 53.981 105.283 53.9799 105.173 53.9752C105.265 54.3285 105.523 54.5053 105.775 54.673C114.961 54.2221 118.977 54.4726 106.766 61.4531C106.574 61.9288 105.665 62.723 105.602 62.8915C105.741 62.8149 105.884 62.7444 106.02 62.6611C107.017 62.0475 107.997 61.4038 109.014 60.824C110.083 60.2139 111.185 59.662 112.276 59.0885C112.934 58.7421 113.571 58.3306 114.264 58.0787C115.146 57.7586 116.075 57.5651 116.986 57.3289C117.31 57.245 117.642 57.1959 117.971 57.1314C118.213 57.084 118.343 57.1667 118.36 57.4105C118.425 58.3655 118.374 59.3188 118.131 60.2419C118.053 60.5391 117.799 60.8275 117.553 61.0356C116.789 61.6849 116.009 62.3192 115.202 62.914C113.291 64.3216 111.376 65.7243 109.434 67.0878C107.717 68.2933 105.96 69.4421 104.222 70.6185C103.563 71.0651 102.825 71.3523 102.109 71.6849C101.337 72.0431 100.591 72.456 99.8321 72.8421C99.6595 72.9298 99.4806 73.0047 99.3046 73.0853C99.3069 73.1139 99.3094 73.1426 99.312 73.1711C99.6774 73.1933 100.044 73.2414 100.408 73.2328C101.512 73.2072 102.58 72.9593 103.627 72.6312C106.354 71.777 108.991 70.6872 111.592 69.51C113.7 68.5559 115.769 67.5237 117.741 66.3105C119.095 65.4778 120.417 64.5941 121.777 63.7723C123.027 63.0168 124.283 62.2743 125.465 61.4124C126.404 60.7275 127.111 59.8423 127.738 58.8816C127.908 58.6208 128.078 58.3598 128.239 58.0931C128.443 57.7546 128.527 57.39 128.425 56.9988C128.391 56.8654 128.424 56.7902 128.553 56.7317C128.872 56.5875 129.182 56.4261 129.5 56.2798C129.588 56.239 129.667 56.197 129.727 56.1406C131.941 54.9404 133.589 52.7601 133.946 50.2767C134.07 49.908 134.338 49.6242 134.546 49.3041C134.622 49.1863 134.683 49.0583 134.763 48.9124C134.409 48.7793 134.081 48.7065 133.75 48.7693C133.486 48.8199 133.253 48.8209 133.043 48.6429Z" fill="#EDEDED"/>
</svg>
