<svg width="101" height="41" viewBox="0 0 101 41" fill="none" xmlns="http://www.w3.org/2000/svg">
<path d="M2.16 40.48C1.08 40.4 0.54 40.06 0.54 39.46C0.54 39.18 0.66 38.84 0.9 38.44C1.02 38.08 1.22 37.84 1.5 37.72C1.26 38.24 1.14 38.66 1.14 38.98C1.14 39.58 1.62 39.88 2.58 39.88C4.82 39.88 7.64 38.84 11.04 36.76C9.08 35.88 8.1 34.58 8.1 32.86C8.1 31.7 8.58 30.52 9.54 29.32C11.54 26.88 14.6 25.18 18.72 24.22C18.2 22.7 17.94 20.98 17.94 19.06C17.94 16.62 18.34 14.32 19.14 12.16C20.42 8.6 22.12 5.88 24.24 4C26.08 2.36 27.94 1.54 29.82 1.54C31.18 1.54 32.3 2 33.18 2.92C34.06 3.8 34.5 5.04 34.5 6.64C34.5 7.96 34.1 9.52 33.3 11.32C31.58 15.04 28.58 19.04 24.3 23.32L26.64 23.08C28 21.76 29.38 20.3 30.78 18.7C32.22 17.06 33.7 15.3 35.22 13.42C39.42 8.18 41.52 4.62 41.52 2.74C41.52 1.86 41.04 1.4 40.08 1.36C39.84 1.36 39.72 1.28 39.72 1.12C39.72 0.919998 39.92 0.819998 40.32 0.819998C42.2 0.899999 43.14 1.68 43.14 3.16C43.14 4.12 42.72 5.42 41.88 7.06C42 7.22 42.02 7.48 41.94 7.84C41.58 9.32 41.12 11.28 40.56 13.72C40.04 16.12 39.44 19 38.76 22.36C41.88 21.88 43.44 20.6 43.44 18.52C43.44 18.24 43.56 18.1 43.8 18.1C43.92 18.1 44.02 18.2 44.1 18.4C44.22 21.08 42.4 22.72 38.64 23.32C38.48 24.36 38.36 25.32 38.28 26.2C38.2 27.08 38.16 27.9 38.16 28.66C38.16 29.3 38.18 29.88 38.22 30.4C38.3 30.92 38.38 31.4 38.46 31.84C38.9 33.64 39.7 34.54 40.86 34.54C41.86 34.54 43.1 33.86 44.58 32.5C44.86 32.26 45.24 31.88 45.72 31.36C46.2 30.8 46.82 30.12 47.58 29.32C47.9 29 48.12 28.84 48.24 28.84C48.4 28.84 48.48 28.94 48.48 29.14C48.48 29.26 48.44 29.4 48.36 29.56C47.8 30.28 47.2 30.96 46.56 31.6C45.92 32.2 45.22 32.78 44.46 33.34C42.74 34.7 41.2 35.38 39.84 35.38C37.92 35.38 36.68 34 36.12 31.24C36 30.68 35.94 30.02 35.94 29.26C35.94 27.66 36.18 25.76 36.66 23.56C35.62 23.6 34.3 23.66 32.7 23.74C31.14 23.78 29.32 23.84 27.24 23.92L22.26 28.66C23.74 29.9 25.64 30.52 27.96 30.52C29.56 30.52 30.76 30.12 31.56 29.32C31.64 29.2 31.74 29.2 31.86 29.32C31.94 29.44 31.94 29.54 31.86 29.62C30.98 30.5 29.68 30.94 27.96 30.94C25.52 30.94 23.48 30.3 21.84 29.02C17.8 32.82 14.64 35.4 12.36 36.76C13.52 37.32 14.94 37.68 16.62 37.84C16.9 37.88 17.04 37.96 17.04 38.08C17.04 38.28 16.82 38.34 16.38 38.26C14.54 38.06 13 37.68 11.76 37.12C7.72 39.48 4.52 40.6 2.16 40.48ZM19.44 24.04C20 23.96 20.62 23.86 21.3 23.74C21.98 23.62 22.72 23.52 23.52 23.44C27.6 19.24 30.6 15.14 32.52 11.14C33.36 9.38 33.78 7.8 33.78 6.4C33.78 5.04 33.4 3.96 32.64 3.16C31.92 2.36 31 1.96 29.88 1.96C28.2 1.96 26.5 2.76 24.78 4.36C22.86 6.2 21.28 8.82 20.04 12.22C19.2 14.5 18.78 16.9 18.78 19.42C18.78 20.3 18.84 21.12 18.96 21.88C19.08 22.64 19.24 23.36 19.44 24.04ZM28.38 22.96C28.9 22.88 29.52 22.82 30.24 22.78C30.96 22.74 31.76 22.72 32.64 22.72C33.68 22.68 34.56 22.66 35.28 22.66C36 22.66 36.52 22.64 36.84 22.6C37.08 21.64 37.38 20.56 37.74 19.36C38.1 18.16 38.48 16.86 38.88 15.46L40.86 8.92C39.22 11.56 37.3 14.04 35.1 16.36C34.54 17 33.68 17.86 32.52 18.94C31.4 20.02 30.02 21.36 28.38 22.96ZM21.54 28L25.56 24.16L22.92 24.64L20.64 26.8C20.8 27 20.94 27.2 21.06 27.4C21.22 27.6 21.38 27.8 21.54 28ZM20.4 26.38C20.68 26.14 20.94 25.9 21.18 25.66C21.46 25.42 21.74 25.16 22.02 24.88C21.66 24.96 21.3 25.06 20.94 25.18C20.58 25.26 20.24 25.36 19.92 25.48L20.4 26.38ZM11.7 36.4C12.78 35.72 14.1 34.72 15.66 33.4C17.26 32.04 19.1 30.36 21.18 28.36C20.82 27.96 20.48 27.56 20.16 27.16L19.74 27.52C16.66 30.12 14.92 31.42 14.52 31.42C14.4 31.42 14.34 31.36 14.34 31.24C14.3 31.16 14.32 31.08 14.4 31C15.96 30 17.8 28.6 19.92 26.8C19.72 26.48 19.52 26.1 19.32 25.66C17.12 26.38 15.14 27.36 13.38 28.6C11.06 30.2 9.9 31.82 9.9 33.46C9.9 34.5 10.5 35.48 11.7 36.4ZM52.4245 35.14C51.9045 35.14 51.4645 34.98 51.1045 34.66C50.7845 34.34 50.6245 33.94 50.6245 33.46C50.6245 32.98 50.7845 32.58 51.1045 32.26C51.4645 31.9 51.9045 31.72 52.4245 31.72C52.9045 31.72 53.3245 31.9 53.6845 32.26C54.0445 32.58 54.2245 32.98 54.2245 33.46C54.2245 33.94 54.0445 34.34 53.6845 34.66C53.3245 34.98 52.9045 35.14 52.4245 35.14ZM76.028 38.2C75.508 38.2 75.008 38 74.528 37.6C74.048 37.2 73.828 36.78 73.868 36.34C73.948 35.46 74.088 34.52 74.288 33.52C74.488 32.52 74.748 31.46 75.068 30.34C74.748 30.26 74.428 30.16 74.108 30.04C73.828 29.88 73.528 29.72 73.208 29.56C71.888 33.28 71.168 35.84 71.048 37.24C71.048 37.36 71.028 37.42 70.988 37.42C70.868 37.42 70.768 37.36 70.688 37.24C70.648 37.16 70.648 37.1 70.688 37.06C70.888 35.38 71.548 32.8 72.668 29.32C69.788 27.68 67.508 25.32 65.828 22.24C64.228 19.32 63.428 16.12 63.428 12.64C59.508 16.24 57.548 19.5 57.548 22.42C57.548 24.18 58.368 25.54 60.008 26.5C60.408 26.74 60.608 26.94 60.608 27.1C60.608 27.26 60.508 27.34 60.308 27.34C60.108 27.34 59.848 27.24 59.528 27.04C57.368 25.28 56.288 23.28 56.288 21.04C56.288 19.2 57.008 17.3 58.448 15.34C59.728 13.5 61.428 11.82 63.548 10.3C63.588 9.82 63.648 9.36 63.728 8.92C63.808 8.44 63.908 7.98 64.028 7.54C64.588 5.66 65.428 4.06 66.548 2.74C67.868 1.22 69.408 0.459999 71.168 0.459999C72.448 0.459999 73.568 0.879998 74.528 1.72C75.608 2.68 76.388 4.02 76.868 5.74C80.428 6.42 82.208 8.96 82.208 13.36C82.208 15.52 81.688 18.1 80.648 21.1C80.248 22.1 79.768 23.36 79.208 24.88C78.688 26.36 78.088 28.12 77.408 30.16C79.008 30.2 80.588 29.78 82.148 28.9C83.548 28.1 84.368 27.16 84.608 26.08C84.688 26 84.748 25.96 84.788 25.96C85.068 25.96 85.168 26.04 85.088 26.2C84.808 27.36 83.888 28.38 82.328 29.26C80.728 30.26 79.028 30.72 77.228 30.64C76.428 33.16 76.028 34.84 76.028 35.68C76.028 36.16 76.168 36.4 76.448 36.4C77.648 36.4 79.948 35 83.348 32.2C84.708 31.08 85.908 30.04 86.948 29.08C87.988 28.12 88.848 27.26 89.528 26.5C90.848 25.1 92.028 23.68 93.068 22.24C94.148 20.8 95.088 19.36 95.888 17.92C97.848 14.4 98.828 11.22 98.828 8.38C98.828 5.9 98.048 3.76 96.488 1.96C96.168 1.52 96.008 1.22 96.008 1.06C96.008 0.939998 96.048 0.879997 96.128 0.879997C96.408 0.879997 96.768 1.08 97.208 1.48C99.328 3.36 100.388 5.7 100.388 8.5C100.388 11.42 99.288 14.7 97.088 18.34C95.368 21.26 93.068 24.22 90.188 27.22C83.188 34.54 78.468 38.2 76.028 38.2ZM64.448 9.64L64.808 9.46C68.928 6.66 72.628 5.38 75.908 5.62C75.468 4.18 74.808 3.08 73.928 2.32C73.088 1.56 72.148 1.18 71.108 1.18C69.628 1.18 68.328 1.8 67.208 3.04C66.128 4.16 65.348 5.66 64.868 7.54C64.788 7.86 64.708 8.2 64.628 8.56C64.588 8.92 64.528 9.28 64.448 9.64ZM72.908 28.72L73.208 27.82C75.448 21.3 76.568 15.64 76.568 10.84C76.568 9.16 76.448 7.76 76.208 6.64C76.048 6.6 75.888 6.58 75.728 6.58C75.568 6.54 75.408 6.52 75.248 6.52C72.128 6.52 68.488 8.28 64.328 11.8C64.328 15.12 65.088 18.34 66.608 21.46C68.208 24.66 70.308 27.08 72.908 28.72ZM75.248 29.8C75.968 27.64 76.988 24.46 78.308 20.26C79.268 17.14 79.748 14.52 79.748 12.4C79.748 9.48 78.868 7.66 77.108 6.94C77.188 7.46 77.248 8.02 77.288 8.62C77.368 9.22 77.408 9.9 77.408 10.66C77.408 15.34 76.208 21.08 73.808 27.88L73.388 29.02C73.708 29.18 74.008 29.34 74.288 29.5C74.608 29.62 74.928 29.72 75.248 29.8ZM98.655 35.14C98.135 35.14 97.695 34.98 97.335 34.66C97.015 34.34 96.855 33.94 96.855 33.46C96.855 32.98 97.015 32.58 97.335 32.26C97.695 31.9 98.135 31.72 98.655 31.72C99.135 31.72 99.555 31.9 99.915 32.26C100.275 32.58 100.455 32.98 100.455 33.46C100.455 33.94 100.275 34.34 99.915 34.66C99.555 34.98 99.135 35.14 98.655 35.14Z" fill="#EDEDED"/>
</svg>
